<svg width="40" height="40" viewBox="0 0 40 40" fill="none" xmlns="http://www.w3.org/2000/svg">
<path d="M20 0C17.3736 0 14.7728 0.517315 12.3463 1.52241C9.91982 2.5275 7.71504 4.00069 5.85786 5.85786C2.10714 9.60859 0 14.6957 0 20C0 25.3043 2.10714 30.3914 5.85786 34.1421C7.71504 35.9993 9.91982 37.4725 12.3463 38.4776C14.7728 39.4827 17.3736 40 20 40C25.3043 40 30.3914 37.8929 34.1421 34.1421C37.8929 30.3914 40 25.3043 40 20C40 17.3736 39.4827 14.7728 38.4776 12.3463C37.4725 9.91982 35.9993 7.71504 34.1421 5.85786C32.285 4.00069 30.0802 2.5275 27.6537 1.52241C25.2272 0.517315 22.6264 0 20 0ZM10.14 32.56C11 30.76 16.24 29 20 29C23.76 29 29 30.76 29.86 32.56C27.0582 34.7911 23.5816 36.004 20 36C16.28 36 12.86 34.72 10.14 32.56ZM32.72 29.66C29.86 26.18 22.92 25 20 25C17.08 25 10.14 26.18 7.28 29.66C5.15264 26.8891 3.99963 23.4934 4 20C4 11.18 11.18 4 20 4C28.82 4 36 11.18 36 20C36 23.64 34.76 27 32.72 29.66ZM20 8C16.12 8 13 11.12 13 15C13 18.88 16.12 22 20 22C23.88 22 27 18.88 27 15C27 11.12 23.88 8 20 8ZM20 18C19.2044 18 18.4413 17.6839 17.8787 17.1213C17.3161 16.5587 17 15.7956 17 15C17 14.2044 17.3161 13.4413 17.8787 12.8787C18.4413 12.3161 19.2044 12 20 12C20.7956 12 21.5587 12.3161 22.1213 12.8787C22.6839 13.4413 23 14.2044 23 15C23 15.7956 22.6839 16.5587 22.1213 17.1213C21.5587 17.6839 20.7956 18 20 18Z" fill="black"/>
</svg>
